<svg width="66" height="71" viewBox="0 0 66 71" fill="none" xmlns="http://www.w3.org/2000/svg">
<path d="M51.6306 31.0312H52.6856L52.0176 30.2147L34.5733 8.88888C34.5733 8.88885 34.5733 8.88882 34.5733 8.88879C33.8906 8.05376 33.4949 6.90324 33.4949 5.68749C33.4949 4.4717 33.8906 3.32114 34.5733 2.4861C35.2538 1.65386 36.1525 1.21246 37.0625 1.21246C37.9725 1.21246 38.8712 1.65386 39.5517 2.4861L63.9267 32.2986L63.9271 32.2991C64.2648 32.7111 64.5367 33.2056 64.7235 33.7563C64.9104 34.3069 65.0073 34.8997 65.0073 35.5C65.0073 36.1003 64.9104 36.6931 64.7235 37.2437C64.5367 37.7944 64.2648 38.2889 63.9271 38.7009L63.9267 38.7014L39.5517 68.5139C38.8712 69.3461 37.9725 69.7875 37.0625 69.7875C36.1525 69.7875 35.2538 69.3461 34.5733 68.5139C33.8906 67.6788 33.4949 66.5283 33.4949 65.3125C33.4949 64.0967 33.8906 62.9461 34.5733 62.1111L52.0176 40.7853L52.6856 39.9687H51.6306H4.5625C3.65389 39.9687 2.75645 39.528 2.07697 38.6969C1.39519 37.8631 1 36.7141 1 35.5C1 34.2859 1.39519 33.1369 2.07697 32.303C2.75645 31.472 3.65389 31.0312 4.5625 31.0312H51.6306Z" fill="#F8F5F2" stroke="#A8571D"/>
</svg>
