<svg width="141" height="100" viewBox="0 0 141 100" fill="none" xmlns="http://www.w3.org/2000/svg">
<path d="M49.9375 0C36.6933 0 23.9915 5.26126 14.6264 14.6264C5.26126 23.9915 0 36.6933 0 49.9375C0 63.1817 5.26126 75.8836 14.6264 85.2486C23.9915 94.6137 36.6933 99.875 49.9375 99.875H91.0625C104.307 99.875 117.009 94.6137 126.374 85.2486C135.739 75.8836 141 63.1817 141 49.9375C141 36.6933 135.739 23.9915 126.374 14.6264C117.009 5.26126 104.307 0 91.0625 0L49.9375 0ZM94 64.625C94 66.9622 93.0715 69.2037 91.4189 70.8564C89.7662 72.509 87.5247 73.4375 85.1875 73.4375C82.8503 73.4375 80.6088 72.509 78.9561 70.8564C77.3035 69.2037 76.375 66.9622 76.375 64.625C76.375 62.2878 77.3035 60.0463 78.9561 58.3936C80.6088 56.741 82.8503 55.8125 85.1875 55.8125C87.5247 55.8125 89.7662 56.741 91.4189 58.3936C93.0715 60.0463 94 62.2878 94 64.625ZM102.812 49.9375C101.655 49.9375 100.509 49.7096 99.4401 49.2667C98.3709 48.8238 97.3994 48.1747 96.5811 47.3564C95.7628 46.5381 95.1137 45.5666 94.6708 44.4974C94.2279 43.4282 94 42.2823 94 41.125C94 39.9677 94.2279 38.8218 94.6708 37.7526C95.1137 36.6834 95.7628 35.7119 96.5811 34.8936C97.3994 34.0753 98.3709 33.4262 99.4401 32.9833C100.509 32.5404 101.655 32.3125 102.812 32.3125C105.15 32.3125 107.391 33.241 109.044 34.8936C110.697 36.5463 111.625 38.7878 111.625 41.125C111.625 43.4622 110.697 45.7037 109.044 47.3564C107.391 49.009 105.15 49.9375 102.812 49.9375ZM20.5625 48.4688C20.5625 47.3001 21.0267 46.1794 21.8531 45.3531C22.6794 44.5267 23.8001 44.0625 24.9688 44.0625H35.25V33.7812C35.25 32.6126 35.7142 31.4919 36.5406 30.6656C37.3669 29.8392 38.4876 29.375 39.6562 29.375C40.8249 29.375 41.9456 29.8392 42.7719 30.6656C43.5983 31.4919 44.0625 32.6126 44.0625 33.7812V44.0625H54.3438C55.5124 44.0625 56.6331 44.5267 57.4594 45.3531C58.2858 46.1794 58.75 47.3001 58.75 48.4688C58.75 49.6374 58.2858 50.7581 57.4594 51.5844C56.6331 52.4108 55.5124 52.875 54.3438 52.875H44.0625V63.1562C44.0625 64.3249 43.5983 65.4456 42.7719 66.2719C41.9456 67.0983 40.8249 67.5625 39.6563 67.5625C38.4876 67.5625 37.3669 67.0983 36.5406 66.2719C35.7142 65.4456 35.25 64.3249 35.25 63.1562V52.875H24.9688C23.8001 52.875 22.6794 52.4108 21.8531 51.5844C21.0267 50.7581 20.5625 49.6374 20.5625 48.4688Z" fill="black"/>
</svg>
