<svg width="64" height="64" viewBox="0 0 64 64" fill="none" xmlns="http://www.w3.org/2000/svg">
<path d="M61.7089 50.592L43.1159 32C49.3109 25.803 55.5119 19.604 61.7089 13.406C68.8789 6.23598 57.7609 -4.87802 50.5889 2.28598C44.3959 8.48498 38.1939 14.686 31.9969 20.878C25.7971 14.6831 19.5997 8.48582 13.4049 2.28598C6.23689 -4.87802 -4.87811 6.23698 2.28489 13.406C8.48389 19.603 14.6839 25.802 20.8789 31.999L2.28489 50.591C-4.88311 57.761 6.23589 68.878 13.4049 61.711C19.6039 55.512 25.8009 49.315 31.9989 43.114C38.1979 49.314 44.3969 55.511 50.5949 61.711C57.7609 68.879 68.8789 57.762 61.7049 50.591" fill="#F8F5F2"/>
</svg>
