<svg width="141" height="141" viewBox="0 0 141 141" fill="none" xmlns="http://www.w3.org/2000/svg">
<path d="M131.747 82.8816C144.084 79.242 144.084 61.758 131.747 58.1184L128.751 57.2372C126.904 56.6934 125.202 55.7431 123.77 54.4559C122.338 53.1687 121.212 51.5774 120.475 49.7985C119.738 48.0197 119.409 46.0984 119.511 44.1757C119.613 42.253 120.145 40.3775 121.066 38.6869L122.564 35.955C128.715 24.6486 116.351 12.2846 105.054 18.4446L102.313 19.9339C95.0869 23.8643 86.0893 20.1366 83.7628 12.2494L82.8816 9.25312C79.242 -3.08438 61.758 -3.08438 58.1184 9.25312L57.2372 12.2494C56.6934 14.0964 55.7431 15.7983 54.4559 17.2303C53.1687 18.6623 51.5774 19.788 49.7985 20.5249C48.0197 21.2618 46.0984 21.5912 44.1757 21.4889C42.253 21.3866 40.3775 20.8553 38.6869 19.9339L35.955 18.4358C24.6486 12.2846 12.2846 24.6486 18.4446 35.9462L19.9339 38.6869C20.8553 40.3775 21.3866 42.253 21.4889 44.1757C21.5912 46.0984 21.2618 48.0197 20.5249 49.7985C19.788 51.5774 18.6623 53.1687 17.2303 54.4559C15.7983 55.7431 14.0964 56.6934 12.2494 57.2372L9.25313 58.1184C-3.08437 61.758 -3.08437 79.242 9.25313 82.8816L12.2494 83.7628C14.0964 84.3066 15.7983 85.2569 17.2303 86.5441C18.6623 87.8313 19.788 89.4226 20.5249 91.2015C21.2618 92.9803 21.5912 94.9016 21.4889 96.8243C21.3866 98.747 20.8553 100.622 19.9339 102.313L18.4358 105.045C12.2846 116.351 24.6486 128.715 35.9462 122.555L38.6869 121.066C40.3775 120.145 42.253 119.613 44.1757 119.511C46.0984 119.409 48.0197 119.738 49.7985 120.475C51.5774 121.212 53.1687 122.338 54.4559 123.77C55.7431 125.202 56.6934 126.904 57.2372 128.751L58.1184 131.747C61.758 144.084 79.242 144.084 82.8816 131.747L83.7628 128.751C84.3066 126.904 85.2569 125.202 86.5441 123.77C87.8313 122.338 89.4226 121.212 91.2015 120.475C92.9803 119.738 94.9016 119.409 96.8243 119.511C98.747 119.613 100.622 120.145 102.313 121.066L105.045 122.564C116.351 128.715 128.715 116.351 122.555 105.054L121.066 102.313C120.145 100.622 119.613 98.747 119.511 96.8243C119.409 94.9016 119.738 92.9803 120.475 91.2015C121.212 89.4226 122.338 87.8313 123.77 86.5441C125.202 85.2569 126.904 84.3066 128.751 83.7628L131.747 82.8816ZM44.6794 70.5C44.6794 63.6519 47.3997 57.0844 52.2421 52.2421C57.0844 47.3998 63.6519 44.6794 70.5 44.6794C77.3481 44.6794 83.9156 47.3998 88.7579 52.2421C93.6002 57.0844 96.3206 63.6519 96.3206 70.5C96.3206 77.3457 93.6012 83.911 88.7605 88.7517C83.9199 93.5924 77.3545 96.3118 70.5088 96.3118C63.6631 96.3118 57.0978 93.5924 52.2571 88.7517C47.4165 83.911 44.697 77.3457 44.697 70.5H44.6794Z" fill="black"/>
</svg>
