<svg width="224" height="218" viewBox="0 0 224 218" fill="none" xmlns="http://www.w3.org/2000/svg">
<path fill-rule="evenodd" clip-rule="evenodd" d="M65.8942 1.48326C77.8197 0.952434 81.622 0.834473 112 0.834473C142.378 0.834473 146.18 0.962264 158.096 1.48326C170.011 2.00425 178.144 3.84248 185.261 6.50644C192.713 9.22938 199.474 13.4858 205.066 18.9907C210.759 24.3874 215.151 30.9146 217.957 38.1299C220.722 45.0109 222.613 52.875 223.162 64.3762C223.711 75.9266 223.833 79.6031 223.833 108.966C223.833 138.338 223.701 142.014 223.162 153.545C222.624 165.046 220.722 172.91 217.957 179.791C215.151 187.008 210.752 193.546 205.066 198.95C199.474 204.455 192.713 208.702 185.261 211.415C178.144 214.089 170.011 215.917 158.116 216.448C146.18 216.979 142.378 217.097 112 217.097C81.622 217.097 77.8197 216.969 65.8942 216.448C53.9992 215.927 45.8659 214.089 38.7492 211.415C31.286 208.701 24.5242 204.448 18.9344 198.95C13.2449 193.55 8.84205 187.015 6.03285 179.801C3.27769 172.92 1.38669 165.056 0.837687 153.555C0.288687 142.005 0.166687 138.328 0.166687 108.966C0.166687 79.5932 0.298854 75.9168 0.837687 64.3959C1.37652 52.875 3.27769 45.0109 6.03285 38.1299C8.8462 30.9154 13.2524 24.3806 18.9445 18.9808C24.5264 13.4809 31.2815 9.22391 38.739 6.50644C45.8557 3.84248 53.989 2.01408 65.884 1.48326H65.8942ZM157.191 20.9469C145.398 20.4259 141.86 20.3177 112 20.3177C82.1405 20.3177 78.6025 20.4259 66.8092 20.9469C55.9004 21.4285 49.9834 23.1881 46.0387 24.6725C40.8232 26.6385 37.092 28.9682 33.1779 32.7528C29.4675 36.243 26.612 40.4919 24.8209 45.1879C23.2857 49.002 21.4659 54.7231 20.9677 65.2708C20.4289 76.6737 20.317 80.0946 20.317 108.966C20.317 137.837 20.4289 141.257 20.9677 152.66C21.4659 163.208 23.2857 168.929 24.8209 172.743C26.6102 177.432 29.467 181.689 33.1779 185.178C36.787 188.766 41.1892 191.529 46.0387 193.259C49.9834 194.743 55.9004 196.503 66.8092 196.984C78.6025 197.505 82.1304 197.613 112 197.613C141.87 197.613 145.398 197.505 157.191 196.984C168.1 196.503 174.017 194.743 177.961 193.259C183.177 191.293 186.908 188.963 190.822 185.178C194.533 181.689 197.39 177.432 199.179 172.743C200.714 168.929 202.534 163.208 203.032 152.66C203.571 141.257 203.683 137.837 203.683 108.966C203.683 80.0946 203.571 76.6737 203.032 65.2708C202.534 54.7231 200.714 49.002 199.179 45.1879C197.146 40.145 194.736 36.5374 190.822 32.7528C187.212 29.1655 182.818 26.4046 177.961 24.6725C174.017 23.1881 168.1 21.4285 157.191 20.9469ZM97.7159 142.299C105.693 145.51 114.576 145.944 122.847 143.525C131.118 141.107 138.265 135.988 143.065 129.041C147.866 122.094 150.024 113.752 149.17 105.438C148.316 97.1236 144.503 89.3543 138.383 83.4565C134.481 79.6864 129.763 76.7996 124.569 75.004C119.375 73.2084 113.834 72.5486 108.345 73.0721C102.856 73.5956 97.5547 75.2894 92.8237 78.0315C88.0927 80.7737 84.0493 84.4959 80.9846 88.9304C77.9199 93.3648 75.9103 98.4011 75.1003 103.677C74.2903 108.952 74.7001 114.336 76.3002 119.44C77.9003 124.544 80.6509 129.241 84.354 133.194C88.0571 137.147 92.6206 140.257 97.7159 142.299ZM71.3537 69.6648C76.6914 64.5038 83.0283 60.4098 90.0024 57.6167C96.9765 54.8235 104.451 53.3859 112 53.3859C119.549 53.3859 127.024 54.8235 133.998 57.6167C140.972 60.4098 147.309 64.5038 152.646 69.6648C157.984 74.8259 162.218 80.9529 165.107 87.6962C167.996 94.4394 169.483 101.667 169.483 108.966C169.483 116.264 167.996 123.492 165.107 130.235C162.218 136.978 157.984 143.105 152.646 148.266C141.866 158.69 127.245 164.545 112 164.545C96.7547 164.545 82.1338 158.69 71.3537 148.266C60.5736 137.843 54.5174 123.706 54.5174 108.966C54.5174 94.2249 60.5736 80.088 71.3537 69.6648ZM182.231 61.6631C183.554 60.4567 184.613 59.0059 185.345 57.3966C186.078 55.7874 186.469 54.0524 186.495 52.2944C186.522 50.5364 186.183 48.7911 185.5 47.1619C184.816 45.5326 183.801 44.0526 182.516 42.8094C181.23 41.5662 179.699 40.585 178.014 39.924C176.329 39.2631 174.524 38.9357 172.706 38.9613C170.888 38.987 169.093 39.3651 167.429 40.0732C165.765 40.7814 164.264 41.8053 163.016 43.0842C160.59 45.5715 159.261 48.8754 159.313 52.2944C159.364 55.7134 160.792 58.9783 163.292 61.3962C165.793 63.814 169.17 65.1944 172.706 65.2442C176.242 65.2941 179.659 64.0095 182.231 61.6631Z" fill="#43ACB5"/>
</svg>
