<?xml version="1.0" encoding="utf-8"?>
<!-- Generator: Adobe Illustrator 26.3.1, SVG Export Plug-In . SVG Version: 6.00 Build 0)  -->
<svg version="1.1" id="Layer_1" xmlns="http://www.w3.org/2000/svg" xmlns:xlink="http://www.w3.org/1999/xlink" x="0px" y="0px"
	 viewBox="0 0 629 423.7" style="enable-background:new 0 0 629 423.7;" xml:space="preserve">
<style type="text/css">
	.st0{enable-background:new    ;}
	.st1{fill:#F8F5F2;}
	.st2{fill:#43ACB4;}
	.st3{fill:#44ACB5;}
</style>
<circle cx="414" cy="212.7" r="211"/>
<g class="st0">
	<path class="st1" d="M53.6,172.3H17.8v36.3H3.7v-85.2h55.2V135h-41v25.8h35.7C53.6,160.8,53.6,172.3,53.6,172.3z"/>
	<path class="st1" d="M118.3,144.1c1.1,0,2.3,0,3.4,0.1s2.2,0.2,3.2,0.4s2,0.3,2.8,0.5c0.9,0.2,1.6,0.4,2.2,0.6l-2,13.8
		c-4.3-1-8.5-1.5-12.7-1.5c-4.7,0-8.5,1-11.3,2.9c-2.9,2-5,4.7-6.3,8.1v39.6h-14v-63.3h13.1l0.6,9.9c2.6-3.4,5.6-6.1,9.2-8.1
		C110,145.1,114,144.1,118.3,144.1z"/>
	<path class="st1" d="M176.2,209.8c-4.7,0-9-0.8-12.8-2.3c-3.9-1.6-7.2-3.7-9.9-6.4c-2.8-2.7-4.9-6-6.4-9.7s-2.3-7.8-2.3-12.1v-2.4
		c0-5,0.8-9.6,2.4-13.6c1.6-4,3.8-7.4,6.5-10.3c2.7-2.8,5.9-5,9.5-6.6c3.6-1.5,7.4-2.3,11.4-2.3c4.6,0,8.7,0.8,12.2,2.3
		s6.4,3.7,8.8,6.5c2.4,2.8,4.1,6.1,5.4,9.9c1.2,3.8,1.8,8,1.8,12.6v5.9h-43.9c0.2,2.5,0.8,4.7,1.8,6.8s2.3,3.9,3.8,5.5
		c1.6,1.5,3.4,2.8,5.6,3.6c2.1,0.9,4.5,1.3,7,1.3c3.5,0,6.8-0.7,9.8-2.1s5.4-3.3,7.3-5.8l7.6,7.1c-1,1.5-2.3,3-3.9,4.4
		c-1.6,1.4-3.5,2.7-5.6,3.8s-4.6,2-7.2,2.7C182.3,209.4,179.4,209.8,176.2,209.8z M174.5,155.4c-2,0-3.8,0.4-5.4,1.1
		c-1.7,0.7-3.2,1.7-4.5,3.1c-1.3,1.3-2.4,3-3.4,4.9c-0.9,1.9-1.6,4.1-2,6.6h29.7V170c-0.1-1.9-0.5-3.7-1.1-5.4s-1.5-3.3-2.7-4.7
		s-2.6-2.5-4.4-3.3C179,155.8,176.9,155.4,174.5,155.4z"/>
	<path class="st1" d="M216.8,176.5c0-4.8,0.6-9.2,1.8-13.2s2.8-7.4,5-10.2s4.8-5.1,7.9-6.6c3.1-1.6,6.6-2.3,10.4-2.3
		c3.5,0,6.5,0.6,9.2,1.8s5,2.9,7,5.1v-32.3h14v89.9h-12.7l-0.7-6.4c-2,2.5-4.4,4.3-7.2,5.6s-6,2-9.7,2c-3.8,0-7.3-0.8-10.4-2.4
		c-3.1-1.6-5.7-3.9-7.9-6.7s-3.8-6.2-5-10.2c-1.2-3.9-1.8-8.2-1.8-12.8v-1.3H216.8z M230.7,177.7c0,2.8,0.3,5.5,0.8,8
		s1.4,4.7,2.6,6.6c1.2,1.9,2.7,3.3,4.6,4.4c1.9,1.1,4.1,1.6,6.6,1.6c3.2,0,5.8-0.7,7.8-2.1c2-1.4,3.6-3.2,4.9-5.6v-27.5
		c-1.2-2.3-2.8-4.1-4.9-5.5s-4.6-2-7.7-2c-2.6,0-4.8,0.5-6.7,1.6s-3.4,2.6-4.6,4.5c-1.2,1.9-2.1,4.1-2.6,6.7
		c-0.6,2.5-0.8,5.2-0.8,8.1L230.7,177.7L230.7,177.7z"/>
	<path class="st1" d="M320,209.8c-4.7,0-9-0.8-12.8-2.3c-3.9-1.6-7.2-3.7-9.9-6.4c-2.8-2.7-4.9-6-6.4-9.7s-2.3-7.8-2.3-12.1v-2.4
		c0-5,0.8-9.6,2.4-13.6s3.8-7.4,6.5-10.3c2.7-2.8,5.9-5,9.5-6.6c3.6-1.5,7.4-2.3,11.4-2.3c4.6,0,8.7,0.8,12.2,2.3s6.4,3.7,8.8,6.5
		s4.1,6.1,5.4,9.9c1.2,3.8,1.8,8,1.8,12.6v5.9h-43.9c0.2,2.5,0.8,4.7,1.8,6.8s2.3,3.9,3.8,5.5c1.6,1.5,3.4,2.8,5.6,3.6
		c2.1,0.9,4.5,1.3,7,1.3c3.5,0,6.8-0.7,9.8-2.1s5.4-3.3,7.3-5.8l7.6,7.1c-1,1.5-2.3,3-3.9,4.4s-3.5,2.7-5.6,3.8s-4.6,2-7.2,2.7
		C326.1,209.4,323.2,209.8,320,209.8z M318.3,155.4c-2,0-3.8,0.4-5.4,1.1c-1.7,0.7-3.2,1.7-4.5,3.1c-1.3,1.3-2.4,3-3.4,4.9
		c-0.9,1.9-1.6,4.1-2,6.6h29.7V170c-0.1-1.9-0.5-3.7-1.1-5.4s-1.5-3.3-2.7-4.7s-2.6-2.5-4.4-3.3
		C322.8,155.8,320.7,155.4,318.3,155.4z"/>
	<path class="st1" d="M403.7,191.5c0-1.1-0.2-2-0.6-2.9s-1.2-1.7-2.3-2.4s-2.6-1.4-4.6-2c-1.9-0.6-4.4-1.2-7.4-1.8
		c-3.7-0.8-7.1-1.7-10.2-2.8s-5.6-2.4-7.8-3.9c-2.2-1.5-3.8-3.3-5-5.3s-1.8-4.3-1.8-7c0-2.6,0.6-5,1.8-7.3c1.2-2.3,2.9-4.4,5.2-6.1
		c2.2-1.8,5-3.1,8.2-4.2c3.2-1,6.8-1.6,10.8-1.6c4.2,0,8,0.5,11.3,1.6s6.2,2.5,8.5,4.3s4.1,3.9,5.3,6.4c1.2,2.5,1.8,5.1,1.8,7.9h-14
		c0-1.2-0.3-2.4-0.8-3.6c-0.5-1.2-1.4-2.2-2.5-3.1c-1.1-0.9-2.4-1.6-4.1-2.1c-1.6-0.5-3.5-0.8-5.6-0.8s-3.9,0.2-5.5,0.7
		c-1.5,0.4-2.8,1-3.8,1.8c-1,0.7-1.8,1.6-2.3,2.5s-0.7,2-0.7,3c0,1.1,0.2,2,0.6,2.9s1.1,1.6,2.1,2.3s2.4,1.3,4.2,1.9
		c1.8,0.6,4.1,1.1,7,1.6c4,0.7,7.6,1.6,10.7,2.6c3.2,1.1,5.9,2.3,8.1,3.9c2.2,1.5,4,3.3,5.2,5.4c1.2,2.1,1.8,4.5,1.8,7.3
		s-0.6,5.4-1.9,7.7s-3.1,4.4-5.5,6.1c-2.4,1.7-5.2,3-8.6,3.9c-3.3,0.9-7.1,1.4-11.2,1.4c-4.6,0-8.7-0.6-12.2-1.8s-6.5-2.8-8.8-4.8
		s-4.2-4.3-5.4-6.8c-1.2-2.5-1.8-5.1-1.8-7.7h13.6c0.1,2,0.6,3.6,1.5,5s2,2.5,3.5,3.3c1.4,0.8,3,1.4,4.7,1.8
		c1.7,0.4,3.5,0.6,5.2,0.6c4.3,0,7.6-0.7,9.9-2.2S403.7,193.8,403.7,191.5z"/>
</g>
<g class="st0">
	<path class="st2" d="M100,300.6l14.6-55.5h12.9l-23.9,85.2H90.5l-0.1-56.4l-17.7,56.4H59.6l2.8-85.2H75l-2.8,55.1l17-55.1h10.7
		v55.5H100z"/>
	<path class="st2" d="M155.7,331.5c-4.3-0.1-8.1-0.9-11.5-2.5s-6.2-3.8-8.5-6.5c-2.2-2.7-3.9-5.9-4.9-9.6s-1.4-7.6-1-11.7l0.3-2.5
		c0.3-2.8,0.9-5.7,1.9-8.4s2.1-5.4,3.6-7.8c1.5-2.5,3.2-4.7,5.1-6.8c2-2,4.1-3.8,6.5-5.3s5-2.6,7.7-3.4c2.8-0.8,5.7-1.2,8.7-1.1
		c4.4,0.1,8.2,1.1,11.3,2.8c3.1,1.8,5.6,4.1,7.4,7c1.9,2.9,3.1,6.2,3.7,9.9s0.7,7.6,0.2,11.6l-0.9,5.9h-42.2c-0.2,2.3,0,4.4,0.5,6.5
		c0.5,2,1.4,3.9,2.6,5.4c1.2,1.6,2.7,2.8,4.5,3.8s3.9,1.5,6.3,1.5c3.4,0.1,6.7-0.5,9.7-1.9s5.7-3.3,8-5.8l6.8,7.1
		c-1.4,2.1-3.2,3.9-5.1,5.4c-2,1.5-4.1,2.7-6.4,3.7c-2.3,1-4.7,1.7-7.2,2.1C160.6,331.3,158.2,331.5,155.7,331.5z M162.7,277.1
		c-2.3-0.1-4.4,0.3-6.3,1.2c-1.9,0.9-3.5,2.1-5,3.6s-2.7,3.2-3.8,5.1s-2,3.8-2.7,5.8l28.8,0.1l0.2-1.2c0.3-1.9,0.2-3.7-0.1-5.4
		s-1-3.2-2-4.6c-1-1.3-2.2-2.4-3.7-3.2C166.4,277.6,164.6,277.1,162.7,277.1z"/>
	<path class="st2" d="M257.8,299c-0.3,2.6-0.8,5.2-1.5,7.9s-1.6,5.2-2.8,7.6c-1.1,2.4-2.5,4.7-4,6.8c-1.5,2.1-3.3,3.9-5.4,5.5
		c-2,1.5-4.3,2.7-6.8,3.6s-5.2,1.2-8.2,1.2c-3.3-0.1-6.3-0.8-9-2.1c-2.7-1.3-5-3.3-6.9-6l-2.2,6.8h-12.5l15.6-89.9h13.7l-6.2,32.6
		c2.3-2.4,4.8-4.3,7.6-5.5c2.8-1.2,5.8-1.8,9.2-1.8c2.9,0.1,5.4,0.6,7.6,1.5s4,2.2,5.5,3.8c1.5,1.6,2.8,3.4,3.7,5.5
		c1,2.1,1.7,4.3,2.2,6.6c0.5,2.3,0.8,4.7,0.8,7.2c0.1,2.5,0,4.9-0.3,7.3L257.8,299z M244.4,297.7c0.2-1.4,0.3-2.8,0.3-4.4
		c0.1-1.5,0-3.1-0.1-4.5c-0.2-1.5-0.4-2.9-0.9-4.3c-0.4-1.4-1.1-2.6-1.9-3.7s-1.9-1.9-3.1-2.5s-2.8-1-4.6-1.1
		c-3.1-0.1-5.8,0.7-8.1,2.2s-4.3,3.6-5.9,6.1l-4.6,26.3c0.9,2.6,2.3,4.6,4.2,6.1c1.9,1.4,4.2,2.2,7,2.3c2.9,0.1,5.4-0.5,7.5-1.8
		s3.8-2.9,5.2-5c1.4-2,2.5-4.3,3.2-6.9c0.8-2.5,1.3-5,1.6-7.5L244.4,297.7z"/>
	<path class="st2" d="M313.8,312.8c0.2-1.6-0.1-3-0.9-4s-1.9-1.8-3.2-2.5c-1.3-0.6-2.8-1.1-4.3-1.5s-2.9-0.7-3.9-0.9
		c-1.6-0.4-3.3-0.8-5-1.3s-3.4-1.1-5-1.8c-1.6-0.7-3.2-1.5-4.6-2.5c-1.5-1-2.7-2.1-3.8-3.3s-1.9-2.7-2.5-4.2
		c-0.6-1.6-0.8-3.4-0.7-5.4c0.1-2.3,0.6-4.3,1.4-6.2c0.8-1.9,1.9-3.5,3.3-5s2.9-2.7,4.7-3.8c1.8-1.1,3.7-2,5.7-2.7s4-1.2,6.1-1.5
		s4.1-0.5,6.1-0.4c3.1,0,6.1,0.5,9,1.3s5.5,2.1,7.7,3.8c2.2,1.7,4,3.8,5.4,6.3c1.3,2.5,2,5.5,1.9,8.9l-13.6-0.1c0-1.6-0.2-3-0.8-4.2
		c-0.6-1.2-1.4-2.2-2.4-3s-2.2-1.4-3.5-1.8s-2.8-0.6-4.3-0.6c-1.4,0-2.8,0.1-4.3,0.4s-2.9,0.7-4.1,1.4c-1.3,0.6-2.4,1.5-3.3,2.6
		s-1.5,2.4-1.7,4s0,2.9,0.7,3.9s1.7,1.8,2.9,2.3c1.2,0.6,2.5,1,3.9,1.3s2.7,0.6,3.8,0.8c1.7,0.4,3.4,0.8,5.2,1.3
		c1.8,0.5,3.5,1.1,5.3,1.8c1.7,0.7,3.3,1.5,4.9,2.4c1.5,0.9,2.8,2,4,3.3c1.1,1.3,2,2.8,2.6,4.4s0.9,3.5,0.8,5.6
		c-0.2,3.6-1.2,6.6-3,9.1s-4.1,4.5-6.9,6.1s-5.8,2.7-9.1,3.4c-3.3,0.7-6.4,1-9.5,0.9c-3.2,0-6.3-0.5-9.3-1.4s-5.7-2.3-8.1-4
		c-2.4-1.8-4.3-3.9-5.7-6.6c-1.4-2.6-2.1-5.7-2.1-9.2l13.2,0.1c0,1.8,0.4,3.4,1.1,4.7c0.7,1.3,1.6,2.4,2.7,3.3s2.5,1.5,4,1.9
		s3.1,0.6,4.9,0.6c1.4,0,2.8-0.1,4.4-0.4c1.6-0.2,3.1-0.7,4.5-1.3c1.4-0.6,2.6-1.4,3.6-2.5C312.9,315.8,313.6,314.5,313.8,312.8z"/>
	<path class="st2" d="M365,275.8c1.2-1.5,2.5-2.8,3.9-4.1c1.4-1.2,2.9-2.3,4.5-3.2c1.6-0.9,3.3-1.6,5.1-2c1.8-0.5,3.7-0.7,5.6-0.7
		c3.7,0.1,6.7,0.8,9.2,2.3c2.5,1.4,4.4,3.3,5.8,5.6c1.4,2.3,2.4,5,2.8,8.1s0.5,6.2,0.1,9.5l-6.6,39h-13.6l6.6-39.2
		c0.2-1.9,0.2-3.6,0-5.3s-0.7-3.1-1.5-4.3c-0.8-1.2-1.8-2.2-3.2-3s-3.1-1.1-5.1-1.2c-3-0.1-5.6,0.5-8,1.8s-4.6,3-6.6,5.1l-8.1,46
		h-13.6l15.6-89.9h13.7L365,275.8z"/>
	<path class="st2" d="M417.6,298.5c0.5-4.4,1.7-8.6,3.4-12.6c1.7-4,4-7.5,6.8-10.5s6.2-5.4,10-7.1c3.8-1.8,8.1-2.6,12.8-2.5
		c4.5,0.1,8.3,1.1,11.6,2.9s5.8,4.2,7.8,7.2s3.3,6.3,4.1,10.2c0.8,3.8,0.9,7.8,0.5,11.8l-0.1,1.3c-0.5,4.4-1.7,8.5-3.5,12.5
		s-4,7.4-6.9,10.4s-6.2,5.3-10,7.1c-3.8,1.7-8.1,2.5-12.8,2.4c-4.4-0.1-8.3-1.1-11.5-2.9s-5.8-4.2-7.8-7.1s-3.4-6.3-4.1-10.1
		c-0.8-3.8-0.9-7.7-0.5-11.8L417.6,298.5z M431.1,299.7c-0.2,1.4-0.2,2.9-0.3,4.5c0,1.6,0.1,3.1,0.3,4.6c0.2,1.5,0.6,3,1.1,4.3
		c0.5,1.4,1.2,2.6,2.1,3.6c0.9,1.1,2,1.9,3.3,2.6s2.9,1,4.7,1.1c2.9,0.1,5.5-0.5,7.6-1.8s4-3,5.5-5c1.5-2.1,2.7-4.4,3.5-7
		c0.9-2.6,1.5-5.1,1.8-7.5l0.1-1.2c0.2-2.1,0.3-4.4,0.2-6.8c-0.1-2.4-0.6-4.7-1.3-6.7s-2-3.8-3.6-5.1c-1.6-1.4-3.8-2.1-6.5-2.2
		c-2.9-0.1-5.5,0.5-7.7,1.8s-4,3-5.5,5.1s-2.7,4.4-3.5,7c-0.9,2.6-1.5,5.1-1.8,7.5L431.1,299.7z"/>
	<path class="st2" d="M545.7,299c-0.3,2.6-0.8,5.2-1.5,7.8c-0.7,2.6-1.6,5.2-2.8,7.6c-1.1,2.4-2.5,4.7-4,6.8c-1.6,2.1-3.3,4-5.4,5.5
		c-2,1.5-4.3,2.8-6.8,3.6s-5.2,1.3-8.2,1.2c-3-0.1-5.9-0.7-8.5-1.8s-4.9-2.8-6.9-5.1l-5.6,30h-13.6l15.2-87.6l12.5-0.1l-0.9,6.4
		c2.3-2.5,4.9-4.3,7.8-5.7c2.8-1.3,6-2,9.5-1.9c2.9,0.1,5.4,0.6,7.6,1.5c2.2,0.9,4,2.2,5.6,3.7c1.5,1.6,2.8,3.4,3.7,5.4
		c1,2.1,1.7,4.3,2.2,6.6c0.5,2.3,0.8,4.7,0.8,7.2c0.1,2.5,0,4.9-0.3,7.3L545.7,299z M532.2,297.7c0.2-1.4,0.2-2.8,0.3-4.3
		c0-1.5-0.1-3-0.2-4.5s-0.5-2.9-1-4.3s-1.1-2.6-2-3.7c-0.8-1.1-1.9-1.9-3.1-2.5c-1.2-0.6-2.8-1-4.6-1c-2.9-0.1-5.5,0.5-7.7,1.9
		c-2.2,1.3-4.1,3.1-5.8,5.4l-4.9,28.5c0.9,2.4,2.3,4.2,4.2,5.4c1.8,1.2,4.1,1.9,6.7,1.9c2,0.1,3.7-0.2,5.3-0.8s3-1.4,4.3-2.5
		s2.4-2.3,3.3-3.7c1-1.4,1.8-2.9,2.5-4.5s1.2-3.3,1.6-5c0.4-1.7,0.7-3.4,1-5L532.2,297.7z"/>
</g>
<path class="st3" d="M440.4,89.3c0.6-0.8,1.4-1.3,2.3-1.6s1.9-0.3,2.8,0L570.3,126c0.8,0.3,1.6,0.8,2.2,1.4c0.6,0.7,1,1.6,1,2.5
	c0.1,0.9-0.1,1.8-0.5,2.7s-1,1.5-1.9,1.9l-42,24.4l-13.6,46.7c-0.3,0.8-0.8,1.7-1.4,2.3c-0.7,0.6-1.5,1-2.5,1.1
	c-0.9,0.1-1.8-0.1-2.7-0.4c-0.9-0.4-1.5-1-1.9-1.8L440.1,94.7c-0.5-0.8-0.7-1.7-0.6-2.7C439.5,91.1,439.8,90.1,440.4,89.3
	L440.4,89.3z"/>
</svg>
