<svg viewBox="0 0 28 41" fill="currentColor" xmlns="http://www.w3.org/2000/svg">
<path d="M26.6976 8.49835C28.742 12.845 28.2782 17.9617 26.0144 22.12C24.1572 25.5317 21.3856 28.3533 19.1016 31.4767C18.0575 32.9067 17.0032 34.3933 16.2863 36.0217C16.0484 36.5633 15.8426 37.1183 15.6402 37.675C15.4361 38.23 15.2623 38.7967 15.0666 39.355C14.8828 39.8783 14.6685 40.495 14.009 40.5H13.9972C13.2111 40.4983 13.0205 39.6167 12.8248 39.0217C12.3457 37.565 11.8447 36.1667 11.1059 34.8133C10.2456 33.24 9.17444 31.785 8.08641 30.3617L26.6976 8.49835ZM8.17244 13.3417L1.49415 21.1867C2.71544 23.7533 4.56592 25.9583 6.33713 28.1533C6.75379 28.67 7.17044 29.19 7.58035 29.7133L15.9877 19.8383L15.9388 19.855C13.0019 20.8567 9.71254 19.37 8.53005 16.5433C8.3683 16.1597 8.25006 15.7594 8.1775 15.35C8.07123 14.6217 8.04761 14.0817 8.17075 13.3534L8.17244 13.3417ZM3.02245 5.74836L3.01738 5.75502C-0.266938 9.86502 -0.83035 15.555 1.13316 20.3717L9.2048 10.89L9.10696 10.8067L3.02245 5.74836ZM18.4893 1.22669L12.0151 8.83169C12.03 8.8254 12.0452 8.81984 12.0607 8.81502C14.7596 7.89669 17.8011 9.06502 19.1792 11.525C19.4761 12.0567 19.7241 12.6634 19.8152 13.2667C19.9299 14.01 19.9586 14.555 19.8354 15.3L19.8304 15.3267L26.3012 7.72502C24.6102 4.67777 21.8303 2.36264 18.5045 1.23169L18.4893 1.22669ZM9.72604 10.28L17.6475 0.975027L17.5683 0.955027C16.3961 0.650603 15.1889 0.497661 13.9769 0.500027C12.0144 0.518188 10.077 0.937089 8.28614 1.73042C6.49534 2.52375 4.8899 3.67437 3.57068 5.11002L3.54369 5.14002L9.72604 10.28Z" fill="#F8F5F2"/>
</svg>
