<svg width="69" height="110" viewBox="0 0 69 110" fill="none" xmlns="http://www.w3.org/2000/svg">
<path d="M68.75 96.25C68.75 99.8967 67.3013 103.394 64.7227 105.973C62.1441 108.551 58.6467 110 55 110L13.75 110C10.1033 110 6.60592 108.551 4.0273 105.973C1.44868 103.394 1.52588e-05 99.8967 1.52588e-05 96.25L1.52588e-05 13.75C1.52588e-05 10.1033 1.44868 6.60594 4.0273 4.02731C6.60592 1.44869 10.1033 3.05176e-05 13.75 3.05176e-05L55 3.05176e-05C58.6467 3.05176e-05 62.1441 1.44869 64.7227 4.02731C67.3013 6.60594 68.75 10.1033 68.75 13.75L68.75 96.25ZM27.5 20.625C27.5 22.4484 28.2243 24.1971 29.5136 25.4864C30.803 26.7757 32.5516 27.5 34.375 27.5C36.1984 27.5 37.9471 26.7757 39.2364 25.4864C40.5257 24.1971 41.25 22.4484 41.25 20.625C41.25 18.8017 40.5257 17.053 39.2364 15.7637C37.9471 14.4744 36.1984 13.75 34.375 13.75C32.5516 13.75 30.803 14.4744 29.5136 15.7637C28.2243 17.053 27.5 18.8017 27.5 20.625Z" fill="black"/>
</svg>
