<svg width="261" height="169" viewBox="0 0 261 169" fill="none" xmlns="http://www.w3.org/2000/svg">
<path d="M255.562 26.5958C254.085 21.4985 251.206 16.8836 247.232 13.2418C243.146 9.48798 238.139 6.80279 232.682 5.43967C212.258 0.234759 130.435 0.23476 130.435 0.23476C96.3235 -0.140492 62.2205 1.50996 28.3185 5.1768C22.8613 6.64062 17.8629 9.38581 13.7677 13.1682C9.744 16.9115 6.8295 21.5276 5.307 26.5853C1.64966 45.6358 -0.127326 64.9791 -1.99955e-06 84.3546C-0.130502 103.713 1.64212 123.05 5.307 142.124C6.79687 147.161 9.7005 151.756 13.7351 155.467C17.7697 159.179 22.794 161.861 28.3185 163.28C49.0136 168.474 130.435 168.474 130.435 168.474C164.589 168.85 198.736 167.2 232.682 163.532C238.139 162.169 243.146 159.484 247.232 155.73C251.204 152.089 254.08 147.474 255.552 142.376C259.304 123.333 261.129 103.982 261 84.5965C261.282 65.1291 259.46 45.6864 255.562 26.5853V26.5958ZM104.422 120.358V48.3618L172.499 84.3651L104.422 120.358Z" fill="#43ACB5"/>
</svg>
