<svg width="39" height="37" viewBox="0 0 39 37" fill="none" xmlns="http://www.w3.org/2000/svg">
<path d="M38.0564 7.58241C37.4513 6.09862 36.5788 4.75403 35.4877 3.6239C34.3959 2.49039 33.1085 1.58961 31.6956 0.97054C30.2306 0.326053 28.6593 -0.0038332 27.0729 3.36038e-05C24.8473 3.36038e-05 22.6759 0.645444 20.7888 1.86455C20.3374 2.15618 19.9085 2.4765 19.5022 2.8255C19.0959 2.4765 18.6671 2.15618 18.2156 1.86455C16.3286 0.645444 14.1572 3.36038e-05 11.9316 3.36038e-05C10.329 3.36038e-05 8.776 0.32513 7.30882 0.97054C5.8913 1.59205 4.61372 2.48606 3.51672 3.6239C2.42422 4.75275 1.5515 6.09767 0.948025 7.58241C0.320523 9.12662 0 10.7664 0 12.4541C0 14.0461 0.30698 15.705 0.916425 17.3927C1.42655 18.803 2.15789 20.2659 3.09237 21.7432C4.57309 24.081 6.60909 26.5192 9.13716 28.9909C13.3265 33.0881 17.4753 35.9183 17.6513 36.0331L18.7212 36.7598C19.1953 37.0801 19.8047 37.0801 20.2787 36.7598L21.3486 36.0331C21.5247 35.9136 25.6689 33.0881 29.8628 28.9909C32.3909 26.5192 34.4269 24.081 35.9076 21.7432C36.8421 20.2659 37.5779 18.803 38.0835 17.3927C38.693 15.705 39 14.0461 39 12.4541C39.0045 10.7664 38.6839 9.12662 38.0564 7.58241V7.58241Z" fill="#F8F5F2"/>
</svg>
